<mxfile host="Electron" agent="Mozilla/5.0 (Windows NT 10.0; Win64; x64) AppleWebKit/537.36 (KHTML, like Gecko) draw.io/28.1.2 Chrome/138.0.7204.243 Electron/37.4.0 Safari/537.36" version="28.1.2">
  <diagram name="Data Architecture" id="-PVLjbQRYb1OqtAynk7W">
    <mxGraphModel dx="2066" dy="1249" grid="1" gridSize="10" guides="1" tooltips="1" connect="1" arrows="1" fold="1" page="1" pageScale="5" pageWidth="850" pageHeight="1100" math="0" shadow="0">
      <root>
        <mxCell id="0" />
        <mxCell id="1" parent="0" />
        <mxCell id="a5kPKOC0Ny-DfcnNH-SW-3" value="" style="rounded=0;whiteSpace=wrap;html=1;fillColor=none;dashed=1;strokeColor=#5D5D5D;" vertex="1" parent="1">
          <mxGeometry x="785" y="2310" width="150" height="550" as="geometry" />
        </mxCell>
        <mxCell id="a5kPKOC0Ny-DfcnNH-SW-4" value="&lt;font style=&quot;font-size: 24px;&quot;&gt;Sources&lt;/font&gt;" style="rounded=0;whiteSpace=wrap;html=1;strokeColor=none;" vertex="1" parent="1">
          <mxGeometry x="800" y="2270" width="120" height="60" as="geometry" />
        </mxCell>
        <mxCell id="a5kPKOC0Ny-DfcnNH-SW-5" value="" style="rounded=0;whiteSpace=wrap;html=1;fillColor=none;dashed=1;strokeColor=#5D5D5D;" vertex="1" parent="1">
          <mxGeometry x="1000" y="2310" width="710" height="550" as="geometry" />
        </mxCell>
        <mxCell id="a5kPKOC0Ny-DfcnNH-SW-6" value="&lt;font style=&quot;font-size: 24px;&quot;&gt;Data Warehouse&lt;/font&gt;" style="rounded=0;whiteSpace=wrap;html=1;strokeColor=none;" vertex="1" parent="1">
          <mxGeometry x="1250" y="2270" width="220" height="60" as="geometry" />
        </mxCell>
        <mxCell id="a5kPKOC0Ny-DfcnNH-SW-9" value="" style="rounded=0;whiteSpace=wrap;html=1;fillColor=none;dashed=1;strokeColor=#5D5D5D;" vertex="1" parent="1">
          <mxGeometry x="1750" y="2310" width="140" height="550" as="geometry" />
        </mxCell>
        <mxCell id="a5kPKOC0Ny-DfcnNH-SW-10" value="&lt;font style=&quot;font-size: 24px;&quot;&gt;Consume&lt;/font&gt;" style="rounded=0;whiteSpace=wrap;html=1;strokeColor=none;" vertex="1" parent="1">
          <mxGeometry x="1750" y="2270" width="120" height="60" as="geometry" />
        </mxCell>
        <mxCell id="a5kPKOC0Ny-DfcnNH-SW-11" value="Bronze Layer" style="rounded=0;whiteSpace=wrap;html=1;fillColor=#f0a30a;fontColor=#000000;strokeColor=#BD7000;fontSize=20;" vertex="1" parent="1">
          <mxGeometry x="1040" y="2330" width="150" height="40" as="geometry" />
        </mxCell>
        <mxCell id="a5kPKOC0Ny-DfcnNH-SW-12" value="" style="rounded=0;whiteSpace=wrap;html=1;fillColor=none;fontColor=#000000;strokeColor=#BD7000;fontSize=20;" vertex="1" parent="1">
          <mxGeometry x="1035" y="2380" width="160" height="460" as="geometry" />
        </mxCell>
        <mxCell id="a5kPKOC0Ny-DfcnNH-SW-13" value="Sliver Layer" style="rounded=0;whiteSpace=wrap;html=1;fillColor=#f5f5f5;strokeColor=#666666;fontSize=20;gradientColor=#b3b3b3;fontColor=#000000;" vertex="1" parent="1">
          <mxGeometry x="1290" y="2330" width="150" height="40" as="geometry" />
        </mxCell>
        <mxCell id="a5kPKOC0Ny-DfcnNH-SW-14" value="" style="rounded=0;whiteSpace=wrap;html=1;fillColor=none;strokeColor=#666666;fontSize=20;gradientColor=#b3b3b3;" vertex="1" parent="1">
          <mxGeometry x="1285" y="2380" width="160" height="460" as="geometry" />
        </mxCell>
        <mxCell id="a5kPKOC0Ny-DfcnNH-SW-15" value="Gold Layer" style="rounded=0;whiteSpace=wrap;html=1;fillColor=#fff2cc;strokeColor=#d6b656;fontSize=20;gradientColor=#ffd966;fontColor=#000000;" vertex="1" parent="1">
          <mxGeometry x="1520" y="2330" width="150" height="40" as="geometry" />
        </mxCell>
        <mxCell id="a5kPKOC0Ny-DfcnNH-SW-16" value="" style="rounded=0;whiteSpace=wrap;html=1;fillColor=none;strokeColor=#d6b656;fontSize=20;gradientColor=#ffd966;" vertex="1" parent="1">
          <mxGeometry x="1510" y="2380" width="170" height="460" as="geometry" />
        </mxCell>
        <mxCell id="a5kPKOC0Ny-DfcnNH-SW-17" value="&lt;font style=&quot;color: rgb(0, 0, 0);&quot;&gt;CRM&lt;/font&gt;" style="image;aspect=fixed;html=1;points=[];align=center;fontSize=12;image=img/lib/azure2/general/Folder_Blank.svg;" vertex="1" parent="1">
          <mxGeometry x="825.5" y="2420" width="69" height="56.00000000000001" as="geometry" />
        </mxCell>
        <mxCell id="a5kPKOC0Ny-DfcnNH-SW-18" value="" style="image;aspect=fixed;html=1;points=[];align=center;fontSize=12;image=img/lib/azure2/general/File.svg;" vertex="1" parent="1">
          <mxGeometry x="880" y="2450" width="24.35" height="30" as="geometry" />
        </mxCell>
        <mxCell id="a5kPKOC0Ny-DfcnNH-SW-20" value="&lt;font&gt;ERP&lt;/font&gt;&lt;div&gt;&lt;font style=&quot;color: rgb(255, 255, 255);&quot;&gt;&lt;br&gt;&lt;/font&gt;&lt;/div&gt;" style="image;aspect=fixed;html=1;points=[];align=center;fontSize=12;image=img/lib/azure2/general/Folder_Blank.svg;" vertex="1" parent="1">
          <mxGeometry x="825.5" y="2540" width="69" height="56.00000000000001" as="geometry" />
        </mxCell>
        <mxCell id="a5kPKOC0Ny-DfcnNH-SW-21" value="" style="image;aspect=fixed;html=1;points=[];align=center;fontSize=12;image=img/lib/azure2/general/File.svg;" vertex="1" parent="1">
          <mxGeometry x="880" y="2570" width="24.35" height="30" as="geometry" />
        </mxCell>
        <mxCell id="a5kPKOC0Ny-DfcnNH-SW-22" value="" style="endArrow=none;html=1;rounded=0;" edge="1" parent="1">
          <mxGeometry width="50" height="50" relative="1" as="geometry">
            <mxPoint x="812.75" y="2630" as="sourcePoint" />
            <mxPoint x="907.25" y="2630" as="targetPoint" />
          </mxGeometry>
        </mxCell>
        <mxCell id="a5kPKOC0Ny-DfcnNH-SW-24" value="&lt;b&gt;Object Type :&lt;/b&gt; CSV File&lt;div&gt;&lt;br&gt;&lt;div&gt;&lt;div&gt;&lt;b&gt;Interface: &lt;/b&gt;Files in Folder&lt;/div&gt;&lt;/div&gt;&lt;/div&gt;" style="text;html=1;align=center;verticalAlign=middle;whiteSpace=wrap;rounded=0;" vertex="1" parent="1">
          <mxGeometry x="790" y="2650" width="140" height="30" as="geometry" />
        </mxCell>
        <mxCell id="a5kPKOC0Ny-DfcnNH-SW-25" value="" style="html=1;verticalLabelPosition=bottom;align=center;labelBackgroundColor=#ffffff;verticalAlign=top;strokeWidth=2;strokeColor=#d79b00;shadow=0;dashed=0;shape=mxgraph.ios7.icons.data;fillColor=#ffcd28;gradientColor=#ffa500;" vertex="1" parent="1">
          <mxGeometry x="1103" y="2430" width="24" height="29.099999999999998" as="geometry" />
        </mxCell>
        <mxCell id="a5kPKOC0Ny-DfcnNH-SW-26" value="" style="html=1;verticalLabelPosition=bottom;align=center;labelBackgroundColor=#ffffff;verticalAlign=top;strokeWidth=2;strokeColor=#666666;shadow=0;dashed=0;shape=mxgraph.ios7.icons.data;fillColor=#f5f5f5;gradientColor=#b3b3b3;" vertex="1" parent="1">
          <mxGeometry x="1348" y="2430" width="24" height="29.099999999999998" as="geometry" />
        </mxCell>
        <mxCell id="a5kPKOC0Ny-DfcnNH-SW-27" value="" style="html=1;verticalLabelPosition=bottom;align=center;labelBackgroundColor=#ffffff;verticalAlign=top;strokeWidth=2;strokeColor=#d6b656;shadow=0;dashed=0;shape=mxgraph.ios7.icons.data;fillColor=#fff2cc;gradientColor=#ffd966;" vertex="1" parent="1">
          <mxGeometry x="1583" y="2430" width="24" height="29.099999999999998" as="geometry" />
        </mxCell>
        <mxCell id="a5kPKOC0Ny-DfcnNH-SW-28" value="" style="shape=singleArrow;whiteSpace=wrap;html=1;fillColor=#dae8fc;gradientColor=#7ea6e0;strokeColor=#6c8ebf;" vertex="1" parent="1">
          <mxGeometry x="935" y="2450" width="100" height="60" as="geometry" />
        </mxCell>
        <mxCell id="a5kPKOC0Ny-DfcnNH-SW-30" value="" style="shape=singleArrow;whiteSpace=wrap;html=1;fillColor=#dae8fc;gradientColor=#7ea6e0;strokeColor=#6c8ebf;" vertex="1" parent="1">
          <mxGeometry x="1197.5" y="2450" width="82.5" height="60" as="geometry" />
        </mxCell>
        <mxCell id="a5kPKOC0Ny-DfcnNH-SW-33" value="&lt;font style=&quot;font-size: 16px;&quot;&gt;Raw Data&lt;/font&gt;" style="text;html=1;align=center;verticalAlign=middle;whiteSpace=wrap;rounded=0;" vertex="1" parent="1">
          <mxGeometry x="1065" y="2465" width="100" height="30" as="geometry" />
        </mxCell>
        <mxCell id="a5kPKOC0Ny-DfcnNH-SW-34" value="&lt;font style=&quot;font-size: 16px;&quot;&gt;Cleaned, Standardized Data&lt;/font&gt;" style="text;html=1;align=center;verticalAlign=middle;whiteSpace=wrap;rounded=0;" vertex="1" parent="1">
          <mxGeometry x="1278.75" y="2459.1" width="162.5" height="55" as="geometry" />
        </mxCell>
        <mxCell id="a5kPKOC0Ny-DfcnNH-SW-35" value="&lt;font style=&quot;font-size: 16px;&quot;&gt;Business-Ready Data&lt;/font&gt;" style="text;html=1;align=center;verticalAlign=middle;whiteSpace=wrap;rounded=0;" vertex="1" parent="1">
          <mxGeometry x="1532.5" y="2465" width="125" height="50" as="geometry" />
        </mxCell>
        <mxCell id="a5kPKOC0Ny-DfcnNH-SW-36" value="&lt;div style=&quot;text-align: left;&quot;&gt;&lt;span style=&quot;background-color: transparent; color: light-dark(rgb(0, 0, 0), rgb(255, 255, 255));&quot;&gt;&lt;b&gt;Object Type&lt;/b&gt;&lt;/span&gt;&lt;b style=&quot;background-color: transparent; color: light-dark(rgb(0, 0, 0), rgb(255, 255, 255));&quot;&gt; :&lt;/b&gt;&lt;span style=&quot;background-color: transparent; color: light-dark(rgb(0, 0, 0), rgb(255, 255, 255));&quot;&gt;&amp;nbsp;Table&lt;/span&gt;&lt;/div&gt;&lt;div&gt;&lt;br&gt;&lt;/div&gt;&lt;div&gt;&lt;div style=&quot;text-align: left;&quot;&gt;&lt;b&gt;Load:&amp;nbsp;&lt;/b&gt;&lt;/div&gt;&lt;/div&gt;&lt;div style=&quot;text-align: left;&quot;&gt;&lt;ul&gt;&lt;li&gt;&lt;b&gt;Batch Processing&lt;/b&gt;&lt;/li&gt;&lt;li&gt;&lt;b&gt;Full Load&amp;nbsp;&lt;/b&gt;&lt;/li&gt;&lt;li&gt;&lt;b&gt;Trunc &amp;amp; Insert&lt;/b&gt;&lt;/li&gt;&lt;/ul&gt;&lt;div&gt;&lt;b&gt;No Tranformations&lt;/b&gt;&lt;/div&gt;&lt;div&gt;&lt;b&gt;&lt;br&gt;&lt;/b&gt;&lt;/div&gt;&lt;div&gt;&lt;b&gt;Data Model: None (As-is)&lt;/b&gt;&lt;/div&gt;&lt;/div&gt;" style="text;html=1;align=center;verticalAlign=middle;whiteSpace=wrap;rounded=0;" vertex="1" parent="1">
          <mxGeometry x="1040" y="2540" width="150" height="134" as="geometry" />
        </mxCell>
        <mxCell id="a5kPKOC0Ny-DfcnNH-SW-37" value="&lt;div style=&quot;text-align: left;&quot;&gt;&lt;span style=&quot;background-color: transparent; color: light-dark(rgb(0, 0, 0), rgb(255, 255, 255));&quot;&gt;&lt;b&gt;Object Type&lt;/b&gt;&lt;/span&gt;&lt;b style=&quot;background-color: transparent; color: light-dark(rgb(0, 0, 0), rgb(255, 255, 255));&quot;&gt; :&lt;/b&gt;&lt;span style=&quot;background-color: transparent; color: light-dark(rgb(0, 0, 0), rgb(255, 255, 255));&quot;&gt;&amp;nbsp;Table&lt;/span&gt;&lt;/div&gt;&lt;div&gt;&lt;br&gt;&lt;/div&gt;&lt;div&gt;&lt;div style=&quot;text-align: left;&quot;&gt;&lt;b&gt;Load:&amp;nbsp;&lt;/b&gt;&lt;/div&gt;&lt;/div&gt;&lt;div style=&quot;text-align: left;&quot;&gt;&lt;ul&gt;&lt;li&gt;&lt;b&gt;Batch Processing&lt;/b&gt;&lt;/li&gt;&lt;li&gt;&lt;b&gt;Full Load&amp;nbsp;&lt;/b&gt;&lt;/li&gt;&lt;li&gt;&lt;b&gt;Trunc &amp;amp; Insert&lt;/b&gt;&lt;/li&gt;&lt;/ul&gt;&lt;div&gt;&lt;b&gt;Tranformations:&lt;/b&gt;&lt;/div&gt;&lt;div&gt;&lt;ul&gt;&lt;li&gt;&lt;b&gt;Data Cleansing&lt;/b&gt;&lt;/li&gt;&lt;li&gt;&lt;b&gt;Data Standrization&lt;/b&gt;&lt;/li&gt;&lt;li&gt;&lt;b&gt;Data Normalization&lt;/b&gt;&lt;/li&gt;&lt;li&gt;&lt;b&gt;Derived Columns&lt;/b&gt;&lt;/li&gt;&lt;li&gt;&lt;b&gt;Data Enrichment&lt;/b&gt;&lt;/li&gt;&lt;/ul&gt;&lt;/div&gt;&lt;div&gt;&lt;b&gt;&lt;br&gt;&lt;/b&gt;&lt;/div&gt;&lt;div&gt;&lt;b&gt;Data Model: None (As-is)&lt;/b&gt;&lt;/div&gt;&lt;/div&gt;" style="text;html=1;align=center;verticalAlign=middle;whiteSpace=wrap;rounded=0;" vertex="1" parent="1">
          <mxGeometry x="1291.25" y="2590" width="150" height="134" as="geometry" />
        </mxCell>
        <mxCell id="a5kPKOC0Ny-DfcnNH-SW-38" value="&lt;div style=&quot;text-align: left;&quot;&gt;&lt;span style=&quot;background-color: transparent; color: light-dark(rgb(0, 0, 0), rgb(255, 255, 255));&quot;&gt;&lt;b&gt;Object Type&lt;/b&gt;&lt;/span&gt;&lt;b style=&quot;background-color: transparent; color: light-dark(rgb(0, 0, 0), rgb(255, 255, 255));&quot;&gt; :&lt;/b&gt;&lt;span style=&quot;background-color: transparent; color: light-dark(rgb(0, 0, 0), rgb(255, 255, 255));&quot;&gt;&amp;nbsp;Views&lt;/span&gt;&lt;/div&gt;&lt;div&gt;&lt;br&gt;&lt;/div&gt;&lt;div&gt;&lt;div style=&quot;text-align: left;&quot;&gt;No&lt;b&gt; Load&lt;/b&gt;&lt;/div&gt;&lt;/div&gt;&lt;div style=&quot;text-align: left;&quot;&gt;&lt;b&gt;&lt;br&gt;&lt;/b&gt;&lt;/div&gt;&lt;div style=&quot;text-align: left;&quot;&gt;&lt;div&gt;&lt;b&gt;Tranformations:&lt;/b&gt;&lt;/div&gt;&lt;div&gt;&lt;ul&gt;&lt;li&gt;&lt;b&gt;Data Integrations&lt;/b&gt;&lt;/li&gt;&lt;li&gt;&lt;b&gt;Aggregations&lt;/b&gt;&lt;/li&gt;&lt;li&gt;&lt;b&gt;Business Logics&lt;/b&gt;&lt;/li&gt;&lt;/ul&gt;&lt;/div&gt;&lt;div&gt;&lt;b&gt;&lt;br&gt;&lt;/b&gt;&lt;/div&gt;&lt;div&gt;&lt;b&gt;Data Model:&lt;/b&gt;&lt;/div&gt;&lt;div&gt;&lt;ul&gt;&lt;li&gt;&lt;b&gt;Star Schema&lt;/b&gt;&lt;/li&gt;&lt;li&gt;&lt;b&gt;Flat Table&lt;/b&gt;&lt;/li&gt;&lt;li&gt;&lt;b&gt;Aggregated Table&lt;/b&gt;&lt;/li&gt;&lt;/ul&gt;&lt;/div&gt;&lt;/div&gt;" style="text;html=1;align=center;verticalAlign=middle;whiteSpace=wrap;rounded=0;" vertex="1" parent="1">
          <mxGeometry x="1520" y="2580" width="150" height="134" as="geometry" />
        </mxCell>
        <mxCell id="a5kPKOC0Ny-DfcnNH-SW-41" value="" style="shape=singleArrow;whiteSpace=wrap;html=1;fillColor=#dae8fc;gradientColor=#7ea6e0;strokeColor=#6c8ebf;" vertex="1" parent="1">
          <mxGeometry x="1437.5" y="2450" width="82.5" height="60" as="geometry" />
        </mxCell>
        <mxCell id="a5kPKOC0Ny-DfcnNH-SW-42" value="" style="shape=singleArrow;whiteSpace=wrap;html=1;fillColor=#dae8fc;gradientColor=#7ea6e0;strokeColor=#6c8ebf;" vertex="1" parent="1">
          <mxGeometry x="1670" y="2450" width="82.5" height="60" as="geometry" />
        </mxCell>
      </root>
    </mxGraphModel>
  </diagram>
</mxfile>
